<mxfile host="app.diagrams.net" agent="Mozilla/5.0 (Windows NT 10.0; Win64; x64) AppleWebKit/537.36 (KHTML, like Gecko) Chrome/130.0.0.0 Safari/537.36" version="24.8.4">
  <diagram name="Page-1" id="ZaVjYpsTHVS4jbgwC36D">
    <mxGraphModel grid="1" page="1" gridSize="10" guides="1" tooltips="1" connect="1" arrows="1" fold="1" pageScale="1" pageWidth="850" pageHeight="1100" math="0" shadow="0">
      <root>
        <mxCell id="0" />
        <mxCell id="1" parent="0" />
        <mxCell id="WtdKJx970OYdKW_MIrwG-1" value="&lt;font style=&quot;font-size: 14px;&quot;&gt;Passport Reservation System&lt;/font&gt;" style="shape=umlFrame;whiteSpace=wrap;html=1;pointerEvents=0;width=210;height=20;" vertex="1" parent="1">
          <mxGeometry x="220" y="130" width="530" height="720" as="geometry" />
        </mxCell>
        <mxCell id="WtdKJx970OYdKW_MIrwG-6" value="" style="edgeStyle=orthogonalEdgeStyle;rounded=0;orthogonalLoop=1;jettySize=auto;html=1;" edge="1" parent="1" source="WtdKJx970OYdKW_MIrwG-2" target="WtdKJx970OYdKW_MIrwG-4">
          <mxGeometry relative="1" as="geometry" />
        </mxCell>
        <mxCell id="WtdKJx970OYdKW_MIrwG-2" value="" style="ellipse;html=1;shape=startState;fillColor=#000000;strokeColor=#ff0000;" vertex="1" parent="1">
          <mxGeometry x="447.5" y="150" width="25" height="20" as="geometry" />
        </mxCell>
        <mxCell id="WtdKJx970OYdKW_MIrwG-8" value="" style="edgeStyle=orthogonalEdgeStyle;rounded=0;orthogonalLoop=1;jettySize=auto;html=1;" edge="1" parent="1" source="WtdKJx970OYdKW_MIrwG-4" target="WtdKJx970OYdKW_MIrwG-7">
          <mxGeometry relative="1" as="geometry" />
        </mxCell>
        <mxCell id="WtdKJx970OYdKW_MIrwG-4" value="Idle" style="rounded=1;whiteSpace=wrap;html=1;arcSize=40;fontColor=#000000;fillColor=#ffffc0;strokeColor=#ff0000;" vertex="1" parent="1">
          <mxGeometry x="398.75" y="210" width="122.5" height="20" as="geometry" />
        </mxCell>
        <mxCell id="WtdKJx970OYdKW_MIrwG-10" value="" style="edgeStyle=orthogonalEdgeStyle;rounded=0;orthogonalLoop=1;jettySize=auto;html=1;" edge="1" parent="1" source="WtdKJx970OYdKW_MIrwG-7" target="WtdKJx970OYdKW_MIrwG-9">
          <mxGeometry relative="1" as="geometry" />
        </mxCell>
        <mxCell id="WtdKJx970OYdKW_MIrwG-7" value="Application form" style="rounded=1;whiteSpace=wrap;html=1;arcSize=50;fontColor=#000000;fillColor=#ffffc0;strokeColor=#ff0000;" vertex="1" parent="1">
          <mxGeometry x="398.75" y="270" width="122.5" height="30" as="geometry" />
        </mxCell>
        <mxCell id="WtdKJx970OYdKW_MIrwG-12" value="" style="edgeStyle=orthogonalEdgeStyle;rounded=0;orthogonalLoop=1;jettySize=auto;html=1;" edge="1" parent="1" source="WtdKJx970OYdKW_MIrwG-9" target="WtdKJx970OYdKW_MIrwG-11">
          <mxGeometry relative="1" as="geometry" />
        </mxCell>
        <mxCell id="WtdKJx970OYdKW_MIrwG-17" value="&lt;span style=&quot;white-space: pre;&quot;&gt;&#x9;&lt;/span&gt;&lt;span style=&quot;white-space: pre;&quot;&gt;&#x9;&lt;/span&gt;&lt;span style=&quot;white-space: pre;&quot;&gt;&#x9;&lt;/span&gt;upload document" style="edgeLabel;html=1;align=center;verticalAlign=middle;resizable=0;points=[];" connectable="0" vertex="1" parent="WtdKJx970OYdKW_MIrwG-12">
          <mxGeometry x="0.1888" y="-10" relative="1" as="geometry">
            <mxPoint x="20" as="offset" />
          </mxGeometry>
        </mxCell>
        <mxCell id="WtdKJx970OYdKW_MIrwG-9" value="Application submitted" style="rounded=1;whiteSpace=wrap;html=1;arcSize=50;fontColor=#000000;fillColor=#ffffc0;strokeColor=#ff0000;" vertex="1" parent="1">
          <mxGeometry x="398.75" y="340" width="122.5" height="30" as="geometry" />
        </mxCell>
        <mxCell id="WtdKJx970OYdKW_MIrwG-14" value="" style="edgeStyle=orthogonalEdgeStyle;rounded=0;orthogonalLoop=1;jettySize=auto;html=1;" edge="1" parent="1" source="WtdKJx970OYdKW_MIrwG-11" target="WtdKJx970OYdKW_MIrwG-13">
          <mxGeometry relative="1" as="geometry" />
        </mxCell>
        <mxCell id="WtdKJx970OYdKW_MIrwG-11" value="Documented uploaded" style="rounded=1;whiteSpace=wrap;html=1;arcSize=40;fontColor=#000000;fillColor=#ffffc0;strokeColor=#ff0000;" vertex="1" parent="1">
          <mxGeometry x="398.75" y="400" width="122.5" height="30" as="geometry" />
        </mxCell>
        <mxCell id="WtdKJx970OYdKW_MIrwG-22" value="" style="edgeStyle=orthogonalEdgeStyle;rounded=0;orthogonalLoop=1;jettySize=auto;html=1;" edge="1" parent="1" source="WtdKJx970OYdKW_MIrwG-13" target="WtdKJx970OYdKW_MIrwG-19">
          <mxGeometry relative="1" as="geometry" />
        </mxCell>
        <mxCell id="WtdKJx970OYdKW_MIrwG-13" value="Verification in prcess" style="rounded=1;whiteSpace=wrap;html=1;arcSize=40;fontColor=#000000;fillColor=#ffffc0;strokeColor=#ff0000;" vertex="1" parent="1">
          <mxGeometry x="398.75" y="460" width="122.5" height="30" as="geometry" />
        </mxCell>
        <mxCell id="WtdKJx970OYdKW_MIrwG-15" value="user&amp;nbsp;&lt;span style=&quot;background-color: initial;&quot;&gt;initiate&lt;/span&gt;&lt;div&gt;application&lt;/div&gt;" style="text;html=1;align=center;verticalAlign=middle;resizable=0;points=[];autosize=1;strokeColor=none;fillColor=none;" vertex="1" parent="1">
          <mxGeometry x="460" y="230" width="80" height="40" as="geometry" />
        </mxCell>
        <mxCell id="WtdKJx970OYdKW_MIrwG-16" value="&amp;nbsp; &amp;nbsp; &amp;nbsp; &amp;nbsp; &amp;nbsp; &amp;nbsp; &amp;nbsp; &amp;nbsp; &amp;nbsp; &amp;nbsp;submit application" style="text;html=1;align=center;verticalAlign=middle;resizable=0;points=[];autosize=1;strokeColor=none;fillColor=none;" vertex="1" parent="1">
          <mxGeometry x="390" y="298" width="180" height="30" as="geometry" />
        </mxCell>
        <mxCell id="WtdKJx970OYdKW_MIrwG-18" value="&amp;nbsp; &amp;nbsp; &amp;nbsp; &amp;nbsp; &amp;nbsp; &amp;nbsp; &amp;nbsp; &amp;nbsp;verification" style="text;html=1;align=center;verticalAlign=middle;resizable=0;points=[];autosize=1;strokeColor=none;fillColor=none;" vertex="1" parent="1">
          <mxGeometry x="405" y="428" width="130" height="30" as="geometry" />
        </mxCell>
        <mxCell id="WtdKJx970OYdKW_MIrwG-24" value="" style="edgeStyle=orthogonalEdgeStyle;rounded=0;orthogonalLoop=1;jettySize=auto;html=1;" edge="1" parent="1" source="WtdKJx970OYdKW_MIrwG-19">
          <mxGeometry relative="1" as="geometry">
            <mxPoint x="540" y="530" as="targetPoint" />
          </mxGeometry>
        </mxCell>
        <mxCell id="WtdKJx970OYdKW_MIrwG-30" value="" style="edgeStyle=orthogonalEdgeStyle;rounded=0;orthogonalLoop=1;jettySize=auto;html=1;" edge="1" parent="1" source="WtdKJx970OYdKW_MIrwG-19">
          <mxGeometry relative="1" as="geometry">
            <mxPoint x="460" y="580" as="targetPoint" />
          </mxGeometry>
        </mxCell>
        <mxCell id="WtdKJx970OYdKW_MIrwG-19" value="check" style="rhombus;whiteSpace=wrap;html=1;fontColor=#000000;fillColor=#ffffc0;strokeColor=#ff0000;" vertex="1" parent="1">
          <mxGeometry x="420" y="510" width="80" height="40" as="geometry" />
        </mxCell>
        <mxCell id="WtdKJx970OYdKW_MIrwG-32" value="" style="edgeStyle=orthogonalEdgeStyle;rounded=0;orthogonalLoop=1;jettySize=auto;html=1;" edge="1" parent="1" source="WtdKJx970OYdKW_MIrwG-25" target="WtdKJx970OYdKW_MIrwG-31">
          <mxGeometry relative="1" as="geometry" />
        </mxCell>
        <mxCell id="WtdKJx970OYdKW_MIrwG-25" value="Application rejected" style="rounded=1;whiteSpace=wrap;html=1;arcSize=40;fontColor=#000000;fillColor=#ffffc0;strokeColor=#ff0000;" vertex="1" parent="1">
          <mxGeometry x="540" y="520" width="120" height="30" as="geometry" />
        </mxCell>
        <mxCell id="WtdKJx970OYdKW_MIrwG-31" value="Idle" style="rounded=1;whiteSpace=wrap;html=1;arcSize=40;fontColor=#000000;fillColor=#ffffc0;strokeColor=#ff0000;" vertex="1" parent="1">
          <mxGeometry x="540" y="580" width="120" height="30" as="geometry" />
        </mxCell>
        <mxCell id="WtdKJx970OYdKW_MIrwG-33" value="failes" style="text;html=1;align=center;verticalAlign=middle;resizable=0;points=[];autosize=1;strokeColor=none;fillColor=none;" vertex="1" parent="1">
          <mxGeometry x="595" y="548" width="50" height="30" as="geometry" />
        </mxCell>
        <mxCell id="WtdKJx970OYdKW_MIrwG-37" value="" style="edgeStyle=orthogonalEdgeStyle;rounded=0;orthogonalLoop=1;jettySize=auto;html=1;" edge="1" parent="1" source="WtdKJx970OYdKW_MIrwG-34" target="WtdKJx970OYdKW_MIrwG-36">
          <mxGeometry relative="1" as="geometry" />
        </mxCell>
        <mxCell id="WtdKJx970OYdKW_MIrwG-34" value="payment pending" style="rounded=1;whiteSpace=wrap;html=1;arcSize=40;fontColor=#000000;fillColor=#ffffc0;strokeColor=#ff0000;" vertex="1" parent="1">
          <mxGeometry x="405" y="580" width="115" height="30" as="geometry" />
        </mxCell>
        <mxCell id="WtdKJx970OYdKW_MIrwG-39" value="" style="edgeStyle=orthogonalEdgeStyle;rounded=0;orthogonalLoop=1;jettySize=auto;html=1;" edge="1" parent="1" source="WtdKJx970OYdKW_MIrwG-36" target="WtdKJx970OYdKW_MIrwG-38">
          <mxGeometry relative="1" as="geometry" />
        </mxCell>
        <mxCell id="WtdKJx970OYdKW_MIrwG-36" value="Payment completed" style="rounded=1;whiteSpace=wrap;html=1;arcSize=40;fontColor=#000000;fillColor=#ffffc0;strokeColor=#ff0000;" vertex="1" parent="1">
          <mxGeometry x="405" y="640" width="115" height="30" as="geometry" />
        </mxCell>
        <mxCell id="WtdKJx970OYdKW_MIrwG-41" value="" style="edgeStyle=orthogonalEdgeStyle;rounded=0;orthogonalLoop=1;jettySize=auto;html=1;" edge="1" parent="1" source="WtdKJx970OYdKW_MIrwG-38" target="WtdKJx970OYdKW_MIrwG-40">
          <mxGeometry relative="1" as="geometry" />
        </mxCell>
        <mxCell id="WtdKJx970OYdKW_MIrwG-38" value="Passport processed" style="rounded=1;whiteSpace=wrap;html=1;arcSize=40;fontColor=#000000;fillColor=#ffffc0;strokeColor=#ff0000;" vertex="1" parent="1">
          <mxGeometry x="405" y="700" width="115" height="30" as="geometry" />
        </mxCell>
        <mxCell id="WtdKJx970OYdKW_MIrwG-51" value="" style="edgeStyle=orthogonalEdgeStyle;rounded=0;orthogonalLoop=1;jettySize=auto;html=1;" edge="1" parent="1" source="WtdKJx970OYdKW_MIrwG-40" target="WtdKJx970OYdKW_MIrwG-46">
          <mxGeometry relative="1" as="geometry" />
        </mxCell>
        <mxCell id="WtdKJx970OYdKW_MIrwG-40" value="Passport dispatched" style="rounded=1;whiteSpace=wrap;html=1;arcSize=40;fontColor=#000000;fillColor=#ffffc0;strokeColor=#ff0000;" vertex="1" parent="1">
          <mxGeometry x="405" y="760" width="115" height="30" as="geometry" />
        </mxCell>
        <mxCell id="WtdKJx970OYdKW_MIrwG-43" value="&amp;nbsp; &amp;nbsp; &amp;nbsp;process" style="text;html=1;align=center;verticalAlign=middle;resizable=0;points=[];autosize=1;strokeColor=none;fillColor=none;" vertex="1" parent="1">
          <mxGeometry x="440" y="608" width="80" height="30" as="geometry" />
        </mxCell>
        <mxCell id="WtdKJx970OYdKW_MIrwG-44" value="payment sucessfull" style="text;html=1;align=center;verticalAlign=middle;resizable=0;points=[];autosize=1;strokeColor=none;fillColor=none;" vertex="1" parent="1">
          <mxGeometry x="460" y="670" width="130" height="30" as="geometry" />
        </mxCell>
        <mxCell id="WtdKJx970OYdKW_MIrwG-45" value="print" style="text;html=1;align=center;verticalAlign=middle;resizable=0;points=[];autosize=1;strokeColor=none;fillColor=none;" vertex="1" parent="1">
          <mxGeometry x="455" y="728" width="50" height="30" as="geometry" />
        </mxCell>
        <mxCell id="WtdKJx970OYdKW_MIrwG-46" value="" style="ellipse;html=1;shape=endState;fillColor=#000000;strokeColor=#ff0000;" vertex="1" parent="1">
          <mxGeometry x="451.25" y="820" width="22.5" height="20" as="geometry" />
        </mxCell>
        <mxCell id="WtdKJx970OYdKW_MIrwG-53" value="" style="endArrow=classic;html=1;rounded=0;exitX=0.5;exitY=1;exitDx=0;exitDy=0;" edge="1" parent="1" source="WtdKJx970OYdKW_MIrwG-31" target="WtdKJx970OYdKW_MIrwG-46">
          <mxGeometry width="50" height="50" relative="1" as="geometry">
            <mxPoint x="595" y="720" as="sourcePoint" />
            <mxPoint x="645" y="670" as="targetPoint" />
            <Array as="points">
              <mxPoint x="600" y="830" />
            </Array>
          </mxGeometry>
        </mxCell>
        <mxCell id="WtdKJx970OYdKW_MIrwG-54" value="fails" style="text;html=1;align=center;verticalAlign=middle;resizable=0;points=[];autosize=1;strokeColor=none;fillColor=none;" vertex="1" parent="1">
          <mxGeometry x="490" y="508" width="40" height="30" as="geometry" />
        </mxCell>
        <mxCell id="WtdKJx970OYdKW_MIrwG-55" value="&amp;nbsp; &amp;nbsp; &amp;nbsp;works" style="text;html=1;align=center;verticalAlign=middle;resizable=0;points=[];autosize=1;strokeColor=none;fillColor=none;" vertex="1" parent="1">
          <mxGeometry x="435" y="548" width="70" height="30" as="geometry" />
        </mxCell>
      </root>
    </mxGraphModel>
  </diagram>
</mxfile>
